<mxfile host="app.diagrams.net" modified="2024-07-07T14:46:59.773Z" agent="Mozilla/5.0 (Windows NT 10.0; Win64; x64) AppleWebKit/537.36 (KHTML, like Gecko) Chrome/126.0.0.0 Safari/537.36" etag="0A_K64Vpec_9S8iVtl5l" version="24.6.4" type="github">
  <diagram name="第 1 页" id="_S51lfxe9kVxv10aLtkj">
    <mxGraphModel dx="1622" dy="1682" grid="1" gridSize="10" guides="1" tooltips="1" connect="1" arrows="1" fold="1" page="1" pageScale="1" pageWidth="827" pageHeight="1169" math="0" shadow="0">
      <root>
        <mxCell id="0" />
        <mxCell id="1" parent="0" />
      </root>
    </mxGraphModel>
  </diagram>
</mxfile>
